<svg xmlns="http://www.w3.org/2000/svg" viewBox="0 0 800 600" role="img" aria-label="Ilustrasi kerajinan anyaman">
  <defs>
    <linearGradient id="g" x1="0" y1="0" x2="0" y2="1">
      <stop offset="0" stop-color="#FFC63A"/>
      <stop offset="1" stop-color="#E08400"/>
    </linearGradient>
  </defs>
  <rect width="800" height="600" fill="#FFF8EC"/>
  <circle cx="400" cy="340" r="235" fill="#FFDDAF" opacity="0.5"/>
  <g>
    <path d="M0 0h100v36a50 50 0 0 1-100 0z" fill="#C2410C"/>
    <path d="M100 0h100v36a50 50 0 0 1-100 0z" fill="#FFDDAF"/>
    <path d="M200 0h100v36a50 50 0 0 1-100 0z" fill="#C2410C"/>
    <path d="M300 0h100v36a50 50 0 0 1-100 0z" fill="#FFDDAF"/>
    <path d="M400 0h100v36a50 50 0 0 1-100 0z" fill="#C2410C"/>
    <path d="M500 0h100v36a50 50 0 0 1-100 0z" fill="#FFDDAF"/>
    <path d="M600 0h100v36a50 50 0 0 1-100 0z" fill="#C2410C"/>
    <path d="M700 0h100v36a50 50 0 0 1-100 0z" fill="#FFDDAF"/>
  </g>
  <ellipse cx="400" cy="500" rx="220" ry="25" fill="#6A4700" opacity="0.08"/>
  <!-- Pegangan keranjang -->
  <path d="M316 262a84 84 0 0 1 168 0" fill="none" stroke="#6A4700" stroke-width="14" stroke-linecap="round"/>
  <!-- Badan keranjang anyaman -->
  <rect x="272" y="262" width="256" height="216" rx="24" fill="#FFDDAF" stroke="#6A4700" stroke-width="7"/>
  <!-- Lajur anyaman horizontal -->
  <g>
    <rect x="288" y="284" width="224" height="30" rx="15" fill="url(#g)"/>
    <rect x="288" y="330" width="224" height="30" rx="15" fill="#C2410C"/>
    <rect x="288" y="376" width="224" height="30" rx="15" fill="url(#g)"/>
    <rect x="288" y="422" width="224" height="30" rx="15" fill="#C2410C"/>
  </g>
  <!-- Silangan anyaman vertikal -->
  <g fill="#FFF8EC" opacity="0.55">
    <rect x="312" y="272" width="26" height="196" rx="13"/>
    <rect x="368" y="272" width="26" height="196" rx="13"/>
    <rect x="424" y="272" width="26" height="196" rx="13"/>
    <rect x="480" y="272" width="26" height="196" rx="13"/>
  </g>
</svg>
