<svg xmlns="http://www.w3.org/2000/svg" viewBox="0 0 800 600" role="img" aria-label="Ilustrasi tas belanja oleh-oleh">
  <defs>
    <linearGradient id="g" x1="0" y1="0" x2="0" y2="1">
      <stop offset="0" stop-color="#FFC63A"/>
      <stop offset="1" stop-color="#E08400"/>
    </linearGradient>
  </defs>
  <rect width="800" height="600" fill="#FFF8EC"/>
  <circle cx="400" cy="340" r="235" fill="#FFDDAF" opacity="0.5"/>
  <g>
    <path d="M0 0h100v36a50 50 0 0 1-100 0z" fill="#C2410C"/>
    <path d="M100 0h100v36a50 50 0 0 1-100 0z" fill="#FFDDAF"/>
    <path d="M200 0h100v36a50 50 0 0 1-100 0z" fill="#C2410C"/>
    <path d="M300 0h100v36a50 50 0 0 1-100 0z" fill="#FFDDAF"/>
    <path d="M400 0h100v36a50 50 0 0 1-100 0z" fill="#C2410C"/>
    <path d="M500 0h100v36a50 50 0 0 1-100 0z" fill="#FFDDAF"/>
    <path d="M600 0h100v36a50 50 0 0 1-100 0z" fill="#C2410C"/>
    <path d="M700 0h100v36a50 50 0 0 1-100 0z" fill="#FFDDAF"/>
  </g>
  <ellipse cx="400" cy="496" rx="220" ry="25" fill="#6A4700" opacity="0.08"/>
  <!-- Pegangan tas -->
  <path d="M344 254a56 56 0 0 1 112 0" fill="none" stroke="#6A4700" stroke-width="14" stroke-linecap="round"/>
  <!-- Badan tas -->
  <path d="M296 254h208l24 202a20 20 0 0 1-19.9 22H291.9a20 20 0 0 1-19.9-22Z" fill="url(#g)" stroke="#C2410C" stroke-width="6"/>
  <!-- Garis kanopi pada tas -->
  <path d="M348 254l-16 224M400 254v224M452 254l16 224" stroke="#FFF8EC" stroke-width="9" stroke-linecap="round" opacity="0.75"/>
  <!-- Label harga -->
  <g transform="rotate(14 512 332)">
    <rect x="482" y="306" width="86" height="52" rx="10" fill="#FFFDF7" stroke="#C2410C" stroke-width="5"/>
    <circle cx="498" cy="332" r="6" fill="#C2410C"/>
    <path d="M514 322h38M514 342h30" stroke="#E08400" stroke-width="6" stroke-linecap="round"/>
  </g>
  <path d="M498 310l-18-38" stroke="#6A4700" stroke-width="5" stroke-linecap="round" fill="none"/>
</svg>
