<svg width="64" height="64" viewBox="0 0 64 64" fill="none" xmlns="http://www.w3.org/2000/svg" role="img" aria-label="Sanan Explorer">
  <defs>
    <linearGradient id="sananPin" x1="32" y1="3" x2="32" y2="61" gradientUnits="userSpaceOnUse">
      <stop stop-color="#FFC63A"/>
      <stop offset="1" stop-color="#E08400"/>
    </linearGradient>
  </defs>
  <!-- Map pin -->
  <path d="M32 61s22-19.7 22-34A22 22 0 1 0 10 27c0 14.3 22 34 22 34Z" fill="url(#sananPin)"/>
  <!-- Shop front -->
  <rect x="18.5" y="24" width="27" height="16.5" rx="2.5" fill="#FFF8EC"/>
  <!-- Awning (scalloped market stripes) -->
  <path d="M16.5 17.5h31l1.8 6.4a2 2 0 0 1-1.9 2.6h-1.3l-2-2.8-2.6 2.8h-2.3l-2-2.8-2.6 2.8h-2.3l-2-2.8-2.6 2.8h-2.3l-2-2.8-2.6 2.8h-1.3a2 2 0 0 1-1.9-2.6l1.8-6.4Z" fill="#C2410C"/>
  <path d="M22.7 17.5l-1.4 6.9M29 17.5l-.5 6.9M35 17.5l.5 6.9M41.3 17.5l1.4 6.9" stroke="#FFF8EC" stroke-width="1.6" stroke-linecap="round"/>
  <!-- Door -->
  <path d="M28.5 40.5v-8a3.5 3.5 0 0 1 7 0v8" fill="#6A4700"/>
  <circle cx="33.6" cy="36.4" r="0.9" fill="#FFC63A"/>
</svg>
